<svg height="682.66669pt" viewBox="-21 -21 682.66669 682.66669" width="682.66669pt" xmlns="http://www.w3.org/2000/svg"><path d="m318.484375 95.578125c-125.945313 0-228.410156 102.464844-228.410156 228.410156 0 33.308594 8.472656 67.804688 24.503906 99.769531 15.015625 29.9375 36.203125 57.007813 61.277344 78.277344 5.324219 4.511719 13.300781 3.863282 17.8125-1.464844 4.515625-5.320312 3.863281-13.296874-1.460938-17.8125-47.410156-40.214843-76.859375-101.054687-76.859375-158.769531 0-112.011719 91.128906-203.136719 203.136719-203.136719 112.015625 0 203.140625 91.125 203.140625 203.136719s-91.125 203.140625-203.140625 203.140625c-12.984375 0-32.085937-2.496094-44.339844-4.816406-6.855469-1.292969-13.464843 3.210938-14.769531 10.066406-1.292969 6.859375 3.210938 13.472656 10.070312 14.769532 13.820313 2.617187 34.34375 5.253906 49.039063 5.253906 125.949219 0 228.414063-102.464844 228.414063-228.414063 0-125.945312-102.464844-228.410156-228.414063-228.410156zm0 0"/><path d="m224.71875 369.429688c2.980469 0 5.546875-.582032 7.6875-1.75 2.144531-1.160157 3.21875-2.816407 3.21875-4.964844v-88.957032c0-2.140624-1.074219-3.773437-3.21875-4.894531-2.140625-1.121093-4.707031-1.675781-7.6875-1.675781-2.984375 0-5.554688.554688-7.695312 1.675781-2.144532 1.121094-3.214844 2.753907-3.214844 4.894531v47.554688l-22.660156-43.21875c-2.515626-4.84375-4.777344-7.875-6.78125-9.089844-2.007813-1.210937-5.109376-1.816406-9.304688-1.816406-2.984375 0-5.546875.585938-7.6875 1.75-2.148438 1.164062-3.21875 2.820312-3.21875 4.964844v88.8125c0 2.148437 1.070312 3.804687 3.21875 4.964844 2.140625 1.167968 4.703125 1.75 7.6875 1.75s5.546875-.582032 7.695312-1.75c2.144532-1.160157 3.214844-2.816407 3.214844-4.964844v-47.554688l26.574219 48.394532c2.144531 3.914062 6.203125 5.875 12.171875 5.875zm0 0"/><path d="m324.019531 286.210938c2.050781 0 3.660157-.933594 4.824219-2.796876 1.164062-1.867187 1.746094-4.152343 1.746094-6.855468 0-2.515625-.554688-4.707032-1.675782-6.574219-1.117187-1.863281-2.75-2.796875-4.894531-2.796875h-49.792969c-2.609374 0-4.851562.585938-6.71875 1.75-1.863281 1.164062-2.789062 2.820312-2.789062 4.964844v88.8125c0 2.148437.925781 3.804687 2.789062 4.964844 1.867188 1.167968 4.109376 1.75 6.71875 1.75h49.792969c2.144531 0 3.773438-.929688 4.894531-2.796876 1.121094-1.863281 1.675782-4.054687 1.675782-6.574218 0-2.707032-.582032-4.984375-1.746094-6.851563-1.167969-1.863281-2.773438-2.796875-4.824219-2.796875h-37.488281v-23.777344h20.984375c2.140625 0 3.773437-.84375 4.898437-2.515624 1.117188-1.679688 1.679688-3.589844 1.679688-5.738282 0-2.328125-.585938-4.335937-1.75-6.015625-1.171875-1.675781-2.777344-2.515625-4.828125-2.515625h-20.976563v-23.636718zm0 0"/><path d="m380.242188 368.378906c2.707031 1.261719 5.78125 1.890625 9.234374 1.890625 3.449219 0 6.523438-.628906 9.230469-1.890625 2.703125-1.253906 4.335938-3.050781 4.894531-5.378906l7.273438-33.152344 7.273438 33.152344c.558593 2.328125 2.1875 4.125 4.894531 5.378906 2.703125 1.261719 5.78125 1.890625 9.230469 1.890625 3.449218 0 6.507812-.628906 9.164062-1.890625 2.65625-1.253906 4.402344-3.050781 5.242188-5.378906l27.832031-85.324219c.191406-.558593.285156-1.160156.285156-1.816406 0-2.234375-1.519531-4.242187-4.546875-6.015625-3.03125-1.765625-6.226562-2.65625-9.582031-2.65625-3.914063 0-6.25 1.351562-6.996094 4.058594l-21.257813 71.746094-11.050781-47.269532c-.371093-1.773437-1.589843-3.175781-3.636719-4.199218-2.054687-1.023438-4.335937-1.539063-6.851562-1.539063-2.519531 0-4.804688.515625-6.855469 1.539063-2.050781 1.03125-3.261719 2.425781-3.636719 4.199218l-11.046874 47.269532-21.257813-71.746094c-.75-2.707032-3.082031-4.058594-7-4.058594-3.351563 0-6.550781.890625-9.578125 2.660156-3.03125 1.769532-4.546875 3.777344-4.546875 6.011719 0 .65625.09375 1.257813.277344 1.816406l27.839843 85.324219c.742188 2.328125 2.46875 4.125 5.171876 5.378906zm0 0"/><path d="m322.859375 69.082031c6.980469 0 12.640625-5.660156 12.640625-12.636719v-43.808593c0-6.976563-5.660156-12.636719-12.640625-12.636719s-12.632813 5.660156-12.632813 12.636719v43.808593c0 6.984376 5.652344 12.636719 12.632813 12.636719zm0 0"/><path d="m322.859375 570.917969c-6.980469 0-12.632813 5.660156-12.632813 12.636719v43.808593c0 6.976563 5.652344 12.636719 12.632813 12.636719s12.640625-5.660156 12.640625-12.636719v-43.808593c0-6.984376-5.660156-12.636719-12.640625-12.636719zm0 0"/><path d="m56.445312 307.363281h-43.808593c-6.976563 0-12.636719 5.660157-12.636719 12.636719s5.660156 12.636719 12.636719 12.636719h43.808593c6.984376 0 12.636719-5.660157 12.636719-12.636719s-5.652343-12.636719-12.636719-12.636719zm0 0"/><path d="m627.363281 307.363281h-43.808593c-6.984376 0-12.636719 5.660157-12.636719 12.636719s5.652343 12.636719 12.636719 12.636719h43.808593c6.976563 0 12.636719-5.660157 12.636719-12.636719s-5.660156-12.636719-12.636719-12.636719zm0 0"/><path d="m122.695312 501.414062-30.976562 30.976563c-4.9375 4.9375-4.9375 12.9375 0 17.875 2.464844 2.46875 5.703125 3.699219 8.9375 3.699219 3.230469 0 6.46875-1.230469 8.933594-3.699219l30.976562-30.976563c4.9375-4.9375 4.9375-12.9375 0-17.875-4.9375-4.933593-12.933594-4.933593-17.871094 0zm0 0"/><path d="m504.351562 150.265625c3.234376 0 6.46875-1.238281 8.9375-3.703125l30.976563-30.976562c4.933594-4.9375 4.933594-12.933594 0-17.871094s-12.9375-4.9375-17.875 0l-30.976563 30.976562c-4.9375 4.933594-4.9375 12.933594 0 17.871094 2.472657 2.46875 5.703126 3.703125 8.9375 3.703125zm0 0"/><path d="m124.15625 149.898438c2.464844 2.464843 5.703125 3.699218 8.933594 3.699218 3.234375 0 6.472656-1.234375 8.9375-3.699218 4.933594-4.9375 4.933594-12.941407 0-17.875l-30.976563-30.976563c-4.9375-4.933594-12.933593-4.933594-17.871093 0s-4.9375 12.9375 0 17.875zm0 0"/><path d="m514.75 504.746094c-4.9375-4.9375-12.9375-4.9375-17.875 0-4.929688 4.933594-4.929688 12.933594 0 17.871094l30.976562 30.976562c2.46875 2.46875 5.703126 3.703125 8.941407 3.703125 3.230469 0 6.464843-1.234375 8.933593-3.703125 4.933594-4.929688 4.933594-12.933594 0-17.871094zm0 0"/><path d="m221.761719 507.167969-.636719.144531c-6.792969 1.609375-11.003906 8.414062-9.402344 15.207031 1.378906 5.816407 6.5625 9.738281 12.292969 9.738281.960937 0 1.9375-.113281 2.914063-.34375l.640624-.152343c6.789063-1.601563 10.992188-8.40625 9.390626-15.199219-1.601563-6.792969-8.40625-11.007812-15.199219-9.394531zm0 0"/></svg>